<?xml version="1.0" encoding="iso-8859-1"?>
<!-- Generator: Adobe Illustrator 19.0.0, SVG Export Plug-In . SVG Version: 6.00 Build 0)  -->
<svg version="1.1" id="Capa_1" xmlns="http://www.w3.org/2000/svg" xmlns:xlink="http://www.w3.org/1999/xlink" x="0px" y="0px"
	 viewBox="0 0 469.339 469.339" style="enable-background:new 0 0 469.339 469.339;" xml:space="preserve">
<path style="fill:#294D70;" d="M429.575,39.768h-0.001c-53.018-53.019-138.978-53.02-191.997-0.001c0,0-0.001,0.001-0.001,0.001
	l-48.472,48.472c-53.019,53.018-53.02,138.978-0.001,191.997c0,0,0.001,0.001,0.001,0.001v0.001c53.02,53.018,138.98,53.018,192,0
	l48.472-48.472C482.593,178.748,482.593,92.787,429.575,39.768L429.575,39.768z M384.317,186.515l-48.478,48.478
	c-28.026,28.023-73.462,28.02-101.484-0.005c-28.023-28.026-28.02-73.462,0.005-101.484l48.478-48.488
	c28.003-28.048,73.442-28.083,101.49-0.08s28.083,73.442,0.08,101.49C384.378,186.455,384.348,186.485,384.317,186.515
	L384.317,186.515z"/>
<path style="fill:#21B950;" d="M280.242,189.101h-0.001c-53.018-53.019-138.978-53.02-191.997-0.001c0,0-0.001,0.001-0.001,0.001
	L39.77,237.572c-53.019,53.018-53.02,138.978-0.001,191.997c0,0,0.001,0.001,0.001,0.001v0.001c53.02,53.018,138.98,53.018,192,0
	l48.471-48.472C333.26,328.081,333.26,242.121,280.242,189.101L280.242,189.101z M234.984,335.848l-48.478,48.478
	c-28.009,28.04-73.445,28.065-101.484,0.056c-28.04-28.009-28.065-73.445-0.056-101.484c0.021-0.021,0.041-0.041,0.062-0.062
	l48.478-48.488c28.057-27.994,73.495-27.944,101.49,0.113C262.949,262.478,262.944,307.837,234.984,335.848L234.984,335.848z"/>
<path style="fill:#009A43;" d="M273.459,306.194c-11.281-0.013-21.735,5.918-27.51,15.609c-3.061,5.115-6.742,9.832-10.962,14.043
	l-21.43,21.429c-12.497,12.497-12.497,32.758,0,45.255s32.758,12.497,45.255,0l0,0l21.429-21.429
	c0.029-0.029,0.058-0.058,0.087-0.087l0.029-0.03l0.059-0.058c0.012-0.013,0.021-0.022,0.035-0.035l0.055-0.056l0.031-0.031
	c0.021-0.022,0.043-0.044,0.065-0.066l0.023-0.024l0.086-0.087l0.024-0.024c0.021-0.021,0.042-0.043,0.063-0.064l0.031-0.031
	l0.059-0.06l0.031-0.031l0.06-0.061l0.027-0.028l0.087-0.088l0.012-0.012l0.076-0.078l0.026-0.026
	c0.02-0.021,0.04-0.042,0.061-0.063l0.029-0.03l0.059-0.06l0.03-0.031c0.058-0.059,0.114-0.117,0.172-0.176l0.025-0.026
	c0.021-0.021,0.042-0.043,0.063-0.064l0.03-0.031l0.057-0.059l0.031-0.032l0.064-0.066l0.022-0.022l0.086-0.089l0.018-0.019
	l0.066-0.069l0.03-0.03c0.02-0.021,0.038-0.041,0.059-0.061l0.031-0.032l0.06-0.063l0.025-0.026l0.085-0.089l0.01-0.011
	c0.026-0.027,0.051-0.053,0.077-0.08l0.026-0.027c0.02-0.02,0.038-0.04,0.057-0.06l0.034-0.035l0.055-0.057l0.031-0.032l0.075-0.078
	l0.008-0.009c0.029-0.03,0.057-0.06,0.085-0.09l0.027-0.028l0.058-0.062l0.034-0.036l0.051-0.054l0.033-0.034l0.059-0.063
	l0.026-0.027l0.083-0.088l0.02-0.022c0.021-0.022,0.042-0.044,0.063-0.067c0.012-0.013,0.019-0.021,0.032-0.034l0.055-0.059
	l0.032-0.034l0.053-0.057l0.031-0.033c0.022-0.023,0.044-0.047,0.066-0.07l0.025-0.027l0.075-0.08l0.03-0.032l0.054-0.058
	l0.033-0.035l0.053-0.058l0.033-0.035l0.062-0.067l0.02-0.021c0.028-0.03,0.055-0.059,0.082-0.088l0.029-0.031l0.055-0.06
	l0.033-0.036l0.049-0.054l0.034-0.037l0.053-0.058l0.031-0.034c0.025-0.027,0.051-0.055,0.076-0.082l0.026-0.029l0.062-0.067
	l0.03-0.033l0.053-0.058l0.034-0.037l0.049-0.054l0.034-0.037l0.054-0.059l0.034-0.038c0.025-0.027,0.049-0.054,0.074-0.081
	l0.032-0.035c0.017-0.018,0.034-0.037,0.05-0.055l0.035-0.039c0.016-0.019,0.033-0.036,0.049-0.055l0.033-0.037
	c0.019-0.021,0.037-0.041,0.055-0.061l0.026-0.029c0.027-0.029,0.054-0.06,0.08-0.089l0.025-0.027l0.057-0.063l0.036-0.041
	l0.044-0.049l0.039-0.043l0.042-0.048l0.04-0.045c0.015-0.017,0.031-0.034,0.046-0.051c0.021-0.024,0.04-0.045,0.061-0.068
	l0.048-0.054l0.039-0.044l0.042-0.048l0.042-0.047l0.036-0.04l0.045-0.051l0.037-0.042l0.067-0.075l0.049-0.055l0.045-0.051
	l0.034-0.038l0.046-0.052l0.033-0.037c0.015-0.017,0.033-0.037,0.048-0.054l0.032-0.036l0.046-0.052l0.034-0.038
	c0.029-0.034,0.058-0.066,0.088-0.1l0.029-0.034l0.048-0.055l0.029-0.033l0.049-0.056l0.03-0.034l0.049-0.056l0.023-0.027
	c0.038-0.044,0.075-0.086,0.114-0.13l0.01-0.011l0.049-0.057l0.029-0.034c0.018-0.02,0.032-0.036,0.049-0.057l0.027-0.031
	c0.014-0.017,0.035-0.04,0.049-0.057l0.027-0.031c0.059-0.068,0.117-0.135,0.176-0.203l0.021-0.024l0.051-0.059l0.028-0.032
	l0.049-0.057l0.027-0.031l0.049-0.058l0.021-0.025c0.038-0.044,0.076-0.088,0.113-0.133l0.01-0.011l0.055-0.065l0.021-0.025
	l0.052-0.061l0.024-0.029l0.054-0.063l0.013-0.016c0.062-0.072,0.124-0.146,0.186-0.218l0.018-0.021l0.055-0.065l0.018-0.021
	l0.057-0.068l0.012-0.015c0.087-0.103,0.176-0.208,0.262-0.311l0.011-0.013l0.062-0.074l0.008-0.01
	c0.089-0.107,0.182-0.217,0.271-0.324v0c0.023-0.028,0.042-0.05,0.065-0.078l0.008-0.01c0.227-0.273,0.455-0.549,0.679-0.823
	l0.002-0.002c4.248-5.189,8.103-10.687,11.535-16.448c9.005-15.212,3.974-34.843-11.237-43.849
	C284.799,307.743,279.182,306.201,273.459,306.194L273.459,306.194z"/>
<path style="fill:#294D70;" d="M384.317,186.515l-48.478,48.478c-28.026,28.018-73.459,28.013-101.479-0.01l-45.257,45.257
	c53.02,53.018,138.98,53.018,192,0l48.471-48.471c53.018-53.02,53.018-138.98,0-192L384.323,85.02
	C412.298,113.07,412.295,158.469,384.317,186.515L384.317,186.515z"/>
<g>
	<path style="fill:#7DD699;" d="M184.241,149.336c-36.016-0.047-70.565,14.264-95.999,39.765c0,0-0.236,0.236-0.649,0.649
		c-0.413,0.413-1.003,1.003-1.711,1.711c-0.708,0.708-1.534,1.534-2.419,2.419c-0.885,0.885-1.829,1.829-2.773,2.773
		c-0.943,0.944-1.887,1.888-2.773,2.773c-0.885,0.885-1.71,1.711-2.419,2.419c-0.708,0.708-1.298,1.298-1.711,1.711
		c-0.413,0.413-0.648,0.649-0.648,0.649c-8.328,8.335-8.322,21.842,0.013,30.17c8.33,8.323,21.827,8.323,30.157,0l15.103-15.103
		c17.42-17.516,41.125-27.335,65.829-27.268c1.026,0,2.051-0.073,3.066-0.219c1.004,0.212,2.022,0.351,3.046,0.418
		c29.745,1.99,56.751,18.065,72.684,43.261c6.293,9.961,19.469,12.934,29.43,6.641s12.934-19.469,6.641-29.43l0,0
		c-4.62-7.308-9.927-14.158-15.848-20.458l-0.005-0.006l-0.076-0.08l-0.007-0.007l-0.074-0.078l-0.009-0.01
		c-0.025-0.026-0.05-0.053-0.075-0.079l-0.005-0.006l-0.076-0.08l-0.007-0.008c-0.109-0.115-0.219-0.231-0.329-0.346l-0.001-0.002
		l-0.08-0.084l-0.005-0.005l-0.075-0.078l-0.012-0.012l-0.07-0.073l-0.014-0.015l-0.064-0.068l-0.018-0.018l-0.07-0.072l-0.01-0.01
		c-0.025-0.027-0.051-0.054-0.077-0.081l-0.003-0.004c-0.11-0.114-0.221-0.229-0.331-0.343l-0.012-0.012
		c-0.023-0.024-0.046-0.047-0.069-0.071l-0.017-0.018l-0.063-0.064l-0.024-0.025l-0.059-0.061l-0.02-0.021l-0.061-0.062
		l-0.025-0.025c-0.02-0.02-0.038-0.04-0.059-0.06l-0.021-0.022c-0.021-0.021-0.041-0.042-0.061-0.063l-0.021-0.022
		c-0.083-0.084-0.165-0.168-0.248-0.252l-0.004-0.004l-0.075-0.076l-0.025-0.025c-0.02-0.02-0.039-0.039-0.059-0.06l-0.025-0.025
		l-0.055-0.055l-0.03-0.031c-0.018-0.018-0.035-0.035-0.053-0.053l-0.031-0.031l-0.049-0.05l-0.033-0.033l-0.051-0.052l-0.031-0.031
		l-0.05-0.05l-0.032-0.032l-0.053-0.054l-0.029-0.029l-0.081-0.081h-0.001c-8.755-8.77-18.668-16.301-29.465-22.383l-0.003-0.001
		l-0.084-0.047l-0.012-0.007l-0.078-0.044l-0.012-0.006l-0.075-0.042l-0.018-0.01l-0.076-0.043l-0.011-0.006l-0.07-0.039
		l-0.023-0.013l-0.069-0.038l-0.019-0.011l-0.06-0.033l-0.074-0.041l-0.041-0.023l-0.057-0.032l-0.026-0.014l-0.061-0.033
		l-0.028-0.015l-0.059-0.033l-0.025-0.013l-0.062-0.034l-0.025-0.014l-0.066-0.036l-0.013-0.007
		c-0.026-0.014-0.049-0.027-0.076-0.042l-0.005-0.003c-17.38-9.53-36.638-15.131-56.417-16.409c-0.473-0.031-0.943-0.046-1.41-0.046
		c-1.019,0-2.037,0.073-3.046,0.218C187.218,149.49,185.732,149.336,184.241,149.336L184.241,149.336z M35.577,256.918
		c-7.766-0.007-14.922,4.207-18.682,11.002l-0.106,0.192l-0.016,0.028c-0.012,0.023-0.02,0.037-0.033,0.059l-0.025,0.045
		l-0.031,0.056l-0.023,0.043l-0.033,0.059l-0.024,0.044l-0.035,0.064c-0.017,0.03-0.031,0.057-0.048,0.087l-0.025,0.047
		l-0.031,0.055c-0.008,0.015-0.018,0.034-0.027,0.049l-0.029,0.053l-0.028,0.051l-0.031,0.058l-0.022,0.041l-0.045,0.083
		l-0.019,0.035l-0.047,0.086l-0.021,0.038l-0.033,0.063l-0.024,0.045c-0.013,0.023-0.022,0.04-0.035,0.064l-0.021,0.038l-0.04,0.074
		l-0.016,0.029l-0.055,0.103l-0.011,0.021l-0.044,0.083l-0.019,0.036l-0.038,0.071l-0.018,0.033l-0.042,0.08l-0.013,0.025
		c-0.038,0.07-0.076,0.142-0.113,0.213l-0.01,0.018c-0.016,0.03-0.032,0.06-0.048,0.091l-0.011,0.02
		c-0.016,0.03-0.031,0.06-0.048,0.091l-0.009,0.017c-0.018,0.035-0.035,0.068-0.054,0.103l-0.002,0.004
		c-0.038,0.073-0.077,0.147-0.115,0.219l-0.008,0.015l-0.048,0.092l-0.012,0.022c-0.014,0.028-0.032,0.062-0.047,0.09l-0.008,0.017
		c-0.056,0.108-0.113,0.218-0.169,0.326l-0.008,0.017c-0.018,0.033-0.031,0.059-0.048,0.092l-0.01,0.019l-0.051,0.099l-0.003,0.007
		c-0.039,0.075-0.076,0.148-0.115,0.224l-0.001,0.002l-0.055,0.107l-0.005,0.01c-0.017,0.033-0.036,0.07-0.052,0.103l-0.005,0.008
		c-0.057,0.113-0.113,0.223-0.171,0.337v0c-0.019,0.038-0.036,0.072-0.056,0.11l-0.003,0.005
		C0.629,300.037-3.447,331.54,2.95,361.766v0.001c0.035,0.163,0.068,0.323,0.104,0.486l0.001,0.003
		c0.035,0.162,0.07,0.321,0.105,0.483l0.001,0.006l0.025,0.114l0.001,0.007c0.027,0.122,0.053,0.239,0.08,0.361l0.001,0.005
		l0.025,0.113l0.003,0.011l0.025,0.111l0.002,0.007c0.027,0.119,0.053,0.239,0.081,0.358l0.003,0.012
		c0.008,0.035,0.016,0.07,0.024,0.105l0.004,0.017c0.008,0.038,0.016,0.073,0.025,0.111l0.001,0.004
		c0.027,0.119,0.055,0.236,0.082,0.355l0.005,0.02l0.023,0.096l0.005,0.023c0.008,0.035,0.016,0.066,0.023,0.102l0.003,0.013
		c0.018,0.078,0.036,0.156,0.055,0.234l0.004,0.018l0.023,0.099l0.005,0.02l0.023,0.098l0.005,0.019
		c0.018,0.078,0.037,0.155,0.056,0.234l0.003,0.011l0.025,0.104l0.006,0.023l0.021,0.092l0.007,0.026
		c0.009,0.035,0.017,0.069,0.025,0.105l0.002,0.008c0.019,0.078,0.038,0.156,0.057,0.234l0.005,0.02l0.023,0.094l0.007,0.028
		c0.007,0.03,0.015,0.062,0.023,0.093l0.005,0.02c0.01,0.038,0.019,0.074,0.028,0.112l0.001,0.004c0.01,0.04,0.02,0.077,0.029,0.117
		l0.005,0.019c0.008,0.03,0.016,0.061,0.023,0.092l0.009,0.035c0.007,0.028,0.014,0.055,0.021,0.083l0.008,0.032
		c0.007,0.03,0.015,0.059,0.022,0.089l0.006,0.023c0.019,0.076,0.038,0.152,0.058,0.228l0.008,0.033l0.02,0.079l0.01,0.038
		c0.007,0.025,0.014,0.055,0.02,0.08l0.008,0.033l0.027,0.104l0.002,0.006l0.029,0.115l0.007,0.025l0.023,0.089l0.009,0.033
		l0.02,0.08l0.01,0.036l0.021,0.081l0.008,0.034c0.02,0.076,0.039,0.148,0.059,0.224l0.008,0.03
		c0.008,0.028,0.014,0.054,0.022,0.082l0.01,0.041c0.006,0.023,0.012,0.048,0.019,0.07l0.011,0.043l0.018,0.07l0.012,0.045
		c0.009,0.035,0.019,0.07,0.028,0.106l0.008,0.031l0.021,0.079l0.012,0.043l0.019,0.07l0.012,0.043l0.019,0.071l0.011,0.04
		c0.008,0.03,0.016,0.061,0.025,0.091l0.005,0.02l0.03,0.11l0.01,0.036c0.007,0.025,0.013,0.049,0.02,0.074l0.012,0.044
		c0.007,0.023,0.012,0.043,0.018,0.066l0.014,0.05c0.007,0.023,0.012,0.044,0.018,0.066l0.011,0.041l0.029,0.106l0.01,0.035
		c0.007,0.025,0.015,0.053,0.021,0.078l0.012,0.045l0.018,0.062l0.015,0.053c0.005,0.018,0.011,0.042,0.016,0.059L5,370.144
		c0.006,0.023,0.012,0.045,0.019,0.068l0.011,0.041c0.01,0.035,0.02,0.069,0.029,0.104l0.015,0.052l0.016,0.057l0.016,0.058
		l0.015,0.054c0.005,0.016,0.01,0.036,0.015,0.052l0.018,0.064l0.014,0.048l0.025,0.087l0.016,0.056l0.02,0.069l0.015,0.052
		l0.018,0.061l0.014,0.05c0.006,0.02,0.012,0.04,0.017,0.06l0.015,0.051l0.018,0.062c0.005,0.016,0.01,0.033,0.014,0.05
		c0.01,0.035,0.02,0.066,0.029,0.101l0.016,0.056l0.016,0.053l0.016,0.056l0.016,0.053c0.006,0.021,0.01,0.037,0.017,0.058
		c0.005,0.017,0.01,0.036,0.016,0.054l0.016,0.054l0.016,0.056l0.03,0.1c0.005,0.017,0.01,0.037,0.016,0.055
		c0.005,0.016,0.012,0.039,0.016,0.055l0.016,0.054l0.016,0.055c0.006,0.02,0.011,0.038,0.018,0.058l0.016,0.056l0.013,0.045
		l0.068,0.228l0.012,0.043l0.02,0.066l0.012,0.04c0.008,0.025,0.013,0.042,0.02,0.067l0.012,0.04
		c0.007,0.025,0.013,0.045,0.021,0.069l0.01,0.035l0.041,0.136l0.01,0.032c0.007,0.025,0.013,0.044,0.021,0.069l0.012,0.039
		c0.007,0.025,0.014,0.046,0.021,0.07l0.01,0.034c0.007,0.025,0.014,0.048,0.022,0.073l0.01,0.033
		c0.025,0.082,0.051,0.165,0.076,0.247l0.008,0.028c0.007,0.025,0.014,0.046,0.021,0.07l0.012,0.037
		c0.007,0.025,0.015,0.049,0.023,0.074l0.008,0.027c0.008,0.029,0.015,0.05,0.024,0.078l0.007,0.021l0.083,0.266l0.005,0.015
		c0.009,0.029,0.018,0.054,0.026,0.083l0.007,0.022l0.026,0.082l0.006,0.018c0.038,0.122,0.076,0.243,0.115,0.365l0.007,0.022
		l0.024,0.077l0.01,0.03l0.025,0.079l0.003,0.008c0.029,0.09,0.061,0.189,0.089,0.278l0.004,0.012l0.027,0.085l0.006,0.018
		l0.027,0.085l0.005,0.016c0.041,0.126,0.081,0.25,0.123,0.376l0.002,0.006l0.03,0.092l0.003,0.008
		c0.053,0.163,0.105,0.318,0.159,0.481l0.002,0.005c0.01,0.033,0.021,0.063,0.032,0.095v0c0.054,0.163,0.108,0.323,0.163,0.486
		l0.001,0.003c0.066,0.195,0.131,0.386,0.197,0.581l0.002,0.006c1.578,4.603,3.404,9.117,5.47,13.523
		c5.02,10.659,17.731,15.23,28.39,10.209c10.643-5.013,15.219-17.695,10.229-28.348c-12.616-27.003-11.579-58.407,2.791-84.519
		c5.698-10.317,1.954-23.299-8.363-28.998C42.716,257.837,39.176,256.922,35.577,256.918L35.577,256.918z"/>
	<path style="fill:#7DD699;" d="M190.015,384.975c-2.586-0.003-5.084,0.938-7.026,2.645c-1.361,1.193-2.759,2.329-4.194,3.408
		l-0.008,0.006l-0.079,0.059l-0.01,0.007l-0.077,0.058l-0.011,0.008l-0.077,0.057l-0.011,0.008
		c-0.025,0.019-0.051,0.038-0.077,0.057l-0.01,0.008c-0.174,0.13-0.351,0.259-0.527,0.387l-0.01,0.008l-0.075,0.055l-0.018,0.013
		l-0.067,0.049l-0.024,0.018l-0.064,0.046l-0.022,0.016l-0.065,0.047l-0.023,0.017l-0.066,0.048l-0.02,0.014l-0.068,0.049
		l-0.02,0.014c-0.087,0.062-0.176,0.125-0.263,0.187l-0.017,0.012c-0.022,0.016-0.045,0.032-0.068,0.048l-0.033,0.023l-0.055,0.039
		l-0.033,0.023l-0.053,0.037l-0.036,0.026l-0.051,0.035l-0.036,0.025l-0.05,0.035l-0.037,0.026l-0.05,0.035l-0.038,0.026
		l-0.048,0.034l-0.039,0.027l-0.048,0.033l-0.04,0.028l-0.044,0.03l-0.043,0.03l-0.038,0.026l-0.097,0.066l-0.035,0.023l-0.05,0.034
		l-0.036,0.025l-0.048,0.033l-0.039,0.027l-0.049,0.033l-0.038,0.026l-0.049,0.033l-0.037,0.025l-0.051,0.034l-0.036,0.024
		l-0.051,0.035l-0.033,0.022l-0.056,0.037l-0.028,0.019l-0.057,0.038l-0.03,0.02l-0.057,0.038l-0.023,0.015
		c-0.071,0.047-0.143,0.095-0.215,0.142l-0.017,0.011l-0.062,0.041l-0.025,0.016l-0.06,0.039l-0.027,0.018l-0.06,0.039l-0.026,0.017
		l-0.061,0.04l-0.025,0.017l-0.061,0.04l-0.025,0.017l-0.061,0.039l-0.027,0.017l-0.061,0.039l-0.021,0.014l-0.068,0.044
		l-0.01,0.007c-0.137,0.088-0.273,0.175-0.41,0.262l-0.005,0.003l-0.071,0.044l-0.018,0.012l-0.068,0.042l-0.019,0.012l-0.068,0.042
		l-0.019,0.012l-0.069,0.043l-0.018,0.011l-0.07,0.043l-0.016,0.01c-0.025,0.016-0.048,0.03-0.074,0.046l-0.007,0.004
		c-0.195,0.121-0.393,0.242-0.589,0.362l-0.006,0.003l-0.081,0.049l-0.005,0.003l-0.079,0.048l-0.008,0.005l-0.079,0.047
		l-0.007,0.005l-0.079,0.048l-0.007,0.004c-0.286,0.171-0.571,0.339-0.859,0.506l-0.001,0c-5.482,3.182-11.365,5.613-17.493,7.23
		l-0.002,0.001l-0.096,0.025c-0.323,0.085-0.647,0.167-0.971,0.248l-0.095,0.023l-0.005,0.001l-0.095,0.023
		c-0.29,0.071-0.582,0.14-0.873,0.208l-0.008,0.002l-0.089,0.02l-0.012,0.003l-0.085,0.019l-0.016,0.004l-0.085,0.019l-0.012,0.003
		l-0.088,0.02l-0.008,0.002c-0.226,0.051-0.452,0.101-0.679,0.149l-0.003,0.001l-0.089,0.019l-0.013,0.003l-0.086,0.018
		l-0.014,0.003l-0.085,0.018l-0.016,0.003l-0.086,0.018l-0.011,0.002l-0.089,0.019l-0.008,0.002
		c-0.227,0.047-0.452,0.093-0.68,0.137l-0.007,0.001l-0.087,0.017l-0.016,0.003l-0.083,0.016l-0.019,0.004l-0.079,0.015
		l-0.023,0.004l-0.079,0.015l-0.02,0.004l-0.081,0.016l-0.016,0.003l-0.087,0.017l-0.001,0c-0.16,0.03-0.32,0.06-0.48,0.089
		l-0.018,0.003l-0.079,0.014l-0.023,0.004l-0.076,0.014l-0.027,0.005l-0.075,0.013l-0.027,0.005l-0.074,0.013l-0.028,0.005
		l-0.075,0.013l-0.024,0.004l-0.079,0.014l-0.02,0.003l-0.083,0.014l-0.01,0.002c-0.158,0.027-0.314,0.053-0.472,0.079l-0.021,0.003
		l-0.077,0.013l-0.025,0.004l-0.076,0.012l-0.028,0.004l-0.074,0.012l-0.029,0.005l-0.071,0.011l-0.033,0.005l-0.071,0.011
		l-0.029,0.005l-0.074,0.012l-0.025,0.004l-0.079,0.012l-0.016,0.002c-0.124,0.019-0.249,0.038-0.374,0.057l-0.012,0.002
		l-0.077,0.011l-0.028,0.004l-0.07,0.01l-0.034,0.005l-0.068,0.01l-0.036,0.005l-0.066,0.01l-0.037,0.005l-0.066,0.009l-0.039,0.005
		l-0.064,0.009l-0.039,0.005l-0.065,0.009l-0.038,0.005l-0.066,0.009l-0.034,0.005l-0.07,0.01l-0.018,0.002l-0.167,0.022
		l-0.018,0.002l-0.067,0.009l-0.038,0.005l-0.063,0.008l-0.042,0.005l-0.061,0.008l-0.044,0.006l-0.059,0.007l-0.046,0.006
		l-0.06,0.007l-0.044,0.006l-0.06,0.007l-0.044,0.005l-0.062,0.008l-0.042,0.005l-0.062,0.008l-0.04,0.005l-0.066,0.008
		l-0.033,0.004l-0.072,0.009l-0.016,0.002l-0.161,0.019l-0.027,0.003l-0.063,0.007l-0.042,0.005l-0.058,0.007l-0.048,0.005
		l-0.057,0.006l-0.046,0.005l-0.06,0.007l-0.046,0.005l-0.058,0.006l-0.048,0.005l-0.057,0.006l-0.048,0.005l-0.058,0.006
		l-0.046,0.005l-0.059,0.006l-0.048,0.005l-0.057,0.006l-0.048,0.005l-0.057,0.006l-0.038,0.004l-0.14,0.014l-0.027,0.003
		l-0.065,0.006l-0.041,0.004l-0.059,0.006l-0.048,0.005l-0.057,0.005l-0.048,0.004l-0.057,0.005l-0.05,0.005l-0.055,0.005
		l-0.053,0.005l-0.051,0.005l-0.055,0.005l-0.052,0.005l-0.053,0.005l-0.053,0.005l-0.053,0.005l-0.053,0.005l-0.055,0.005
		l-0.05,0.004l-0.065,0.005l-0.087,0.007l-0.057,0.005l-0.05,0.004l-0.055,0.004l-0.051,0.004l-0.057,0.004l-0.049,0.004
		l-0.056,0.004l-0.051,0.004l-0.055,0.004l-0.053,0.004l-0.052,0.004l-0.053,0.004l-0.055,0.004l-0.051,0.004l-0.055,0.004
		l-0.05,0.004l-0.061,0.004l-0.046,0.003l-0.072,0.005l-0.035,0.002l-0.105,0.007l-0.038,0.003l-0.068,0.004l-0.048,0.003
		l-0.059,0.004l-0.049,0.003l-0.057,0.004l-0.052,0.003l-0.055,0.003l-0.051,0.003l-0.056,0.003l-0.051,0.003l-0.057,0.003
		l-0.049,0.003l-0.059,0.003l-0.049,0.003l-0.057,0.003l-0.049,0.003l-0.06,0.003l-0.048,0.003l-0.069,0.004l-0.037,0.002
		l-0.105,0.005l-0.037,0.002l-0.071,0.003l-0.04,0.002l-0.068,0.003l-0.042,0.002l-0.066,0.003l-0.044,0.002l-0.063,0.003
		l-0.046,0.002l-0.062,0.003l-0.046,0.002l-0.061,0.002l-0.047,0.002l-0.063,0.002l-0.045,0.002l-0.063,0.002l-0.044,0.002
		l-0.067,0.002l-0.04,0.001l-0.095,0.003l-0.011,0l-0.108,0.004l-0.03,0.001l-0.077,0.002l-0.042,0.001l-0.066,0.002l-0.044,0.001
		l-0.064,0.002l-0.046,0.001l-0.061,0.002l-0.048,0.001l-0.059,0.001l-0.048,0.001l-0.063,0.001l-0.042,0.001l-0.068,0.001
		l-0.042,0.001l-0.064,0.001l-0.044,0.001l-0.067,0.001l-0.041,0.001c-0.072,0.001-0.143,0.002-0.214,0.004l-0.033,0l-0.076,0.001
		l-0.04,0.001l-0.066,0.001l-0.045,0.001l-0.064,0.001l-0.044,0l-0.064,0.001l-0.046,0l-0.064,0.001l-0.044,0l-0.064,0l-0.044,0
		l-0.066,0l-0.042,0l-0.066,0l-0.042,0l-0.074,0l-0.034,0l-0.108,0l-0.101,0h-0.021l-0.099,0h-0.014l-0.09,0l-0.019,0l-0.098,0
		l-0.018,0l-0.094-0.001l-0.009,0l-0.101-0.001l-0.02,0l-0.098-0.001h-0.003l-0.099-0.001l-0.023,0l-0.1-0.001l-0.006,0
		l-0.098-0.001l-0.016,0l-0.102-0.002l-0.012,0l-0.093-0.002l-0.016,0l-0.099-0.002l-0.019,0l-0.096-0.002l-0.006,0l-0.101-0.002
		l-0.02,0l-0.098-0.002l-0.014,0l-0.087-0.002l-0.024-0.001l-0.096-0.003l-0.018,0l-0.087-0.002l-0.02-0.001l-0.098-0.003
		l-0.019-0.001l-0.096-0.003l-0.006,0l-0.1-0.003l-0.023-0.001l-0.098-0.003l-0.005,0l-0.093-0.003l-0.027-0.001l-0.095-0.004
		l-0.017-0.001l-0.087-0.003l-0.02-0.001l-0.096-0.004l-0.022-0.001l-0.085-0.004l-0.018-0.001l-0.096-0.004l-0.024-0.001
		l-0.096-0.004l-0.003,0l-0.098-0.005l-0.025-0.001l-0.093-0.004l-0.023-0.001l-0.077-0.004l-0.028-0.001l-0.091-0.005l-0.027-0.001
		l-0.077-0.004l-0.023-0.001l-0.094-0.005l-0.026-0.001l-0.085-0.005l-0.013-0.001l-0.095-0.005l-0.026-0.001l-0.096-0.006
		l-0.014-0.001l-0.086-0.005l-0.024-0.001l-0.097-0.006l-0.016-0.001l-0.086-0.005l-0.021-0.001l-0.095-0.006l-0.023-0.002
		l-0.087-0.006l-0.014-0.001l-0.096-0.007l-0.025-0.002l-0.095-0.007l-0.011-0.001l-0.087-0.006l-0.028-0.002l-0.09-0.007
		l-0.026-0.002l-0.077-0.006l-0.025-0.002l-0.093-0.007l-0.024-0.002l-0.086-0.007l-0.013-0.001l-0.095-0.007l-0.027-0.002
		l-0.09-0.007l-0.014-0.001l-0.089-0.007l-0.026-0.002l-0.093-0.008l-0.021-0.002l-0.076-0.006l-0.029-0.002l-0.091-0.008
		l-0.026-0.002l-0.076-0.007l-0.025-0.002l-0.09-0.008l-0.031-0.003l-0.078-0.007l-0.026-0.002l-0.084-0.008l-0.029-0.003
		l-0.091-0.009l-0.024-0.002l-0.072-0.007l-0.033-0.003l-0.086-0.008l-0.035-0.003l-0.064-0.006l-0.033-0.003l-0.087-0.009
		l-0.033-0.003l-0.074-0.008l-0.026-0.003l-0.085-0.009l-0.035-0.004l-0.087-0.009l-0.023-0.002l-0.074-0.008l-0.032-0.003
		l-0.089-0.01l-0.026-0.003l-0.072-0.008l-0.03-0.003l-0.087-0.01l-0.032-0.004l-0.073-0.008l-0.023-0.003l-0.089-0.01l-0.031-0.004
		l-0.083-0.01l-0.026-0.003l-0.079-0.009l-0.029-0.003l-0.089-0.011l-0.029-0.004l-0.07-0.008l-0.029-0.004l-0.087-0.011
		l-0.034-0.004l-0.07-0.009l-0.026-0.003l-0.089-0.011l-0.032-0.004l-0.076-0.01l-0.031-0.004l-0.074-0.009l-0.036-0.005
		l-0.085-0.011l-0.031-0.004l-0.064-0.008l-0.036-0.005l-0.084-0.011l-0.035-0.005l-0.061-0.008l-0.036-0.005l-0.083-0.011
		l-0.036-0.005l-0.066-0.009l-0.045-0.006l-0.07-0.01l-0.036-0.005l-0.079-0.011l-0.038-0.006l-0.06-0.009l-0.04-0.006l-0.081-0.012
		l-0.038-0.005l-0.057-0.008l-0.039-0.006l-0.079-0.012l-0.043-0.006l-0.057-0.009l-0.042-0.006l-0.073-0.011l-0.04-0.006
		l-0.066-0.01l-0.049-0.008l-0.06-0.009l-0.04-0.006l-0.081-0.013l-0.038-0.006l-0.056-0.009l-0.039-0.006l-0.079-0.013
		l-0.043-0.007l-0.051-0.008l-0.059-0.01l-0.059-0.01l-0.046-0.007l-0.05-0.008l-0.066-0.011l-0.051-0.008l-0.044-0.007l-0.062-0.01
		l-0.061-0.01l-0.044-0.007l-0.049-0.008l-0.074-0.012l-0.047-0.008l-0.045-0.008l-0.063-0.011l-0.057-0.01l-0.048-0.008
		l-0.048-0.008l-0.07-0.012l-0.048-0.008l-0.047-0.008l-0.061-0.011l-0.057-0.01l-0.048-0.009l-0.047-0.008l-0.074-0.013
		l-0.046-0.008l-0.047-0.009l-0.064-0.012l-0.055-0.01l-0.05-0.009l-0.04-0.007l-0.079-0.015l-0.042-0.008l-0.05-0.009l-0.048-0.009
		l-0.069-0.013l-0.048-0.009l-0.047-0.009l-0.057-0.011l-0.066-0.013l-0.039-0.008l-0.053-0.01l-0.067-0.013l-0.054-0.011
		l-0.035-0.007l-0.089-0.017l-0.033-0.007l-0.056-0.011l-0.027-0.005l-0.098-0.02l-0.029-0.006l-0.056-0.011l-0.027-0.006
		l-0.097-0.02l-0.03-0.006l-0.087-0.018l-0.038-0.008l-0.052-0.011l-0.035-0.007l-0.092-0.019l-0.03-0.006l-0.055-0.011
		l-0.031-0.007l-0.094-0.02l-0.031-0.007l-0.053-0.011l-0.038-0.008l-0.084-0.018l-0.036-0.008l-0.052-0.011l-0.041-0.009
		l-0.081-0.018l-0.035-0.008l-0.09-0.02l-0.031-0.007l-0.055-0.012l-0.031-0.007l-0.092-0.021l-0.029-0.006l-0.057-0.013
		l-0.024-0.005l-0.099-0.022l-0.029-0.007c-0.061-0.014-0.121-0.028-0.182-0.041l-0.024-0.006l-0.123-0.028l-0.001,0l-0.06-0.014
		l-0.023-0.005l-0.105-0.025l-0.022-0.005l-0.059-0.014l-0.016-0.004l-0.11-0.026l-0.021-0.005l-0.059-0.014l-0.017-0.004
		l-0.109-0.026l-0.023-0.006l-0.186-0.045l-0.018-0.004l-0.12-0.03l-0.005-0.001l-0.062-0.015l-0.021-0.005l-0.109-0.027
		l-0.016-0.004l-0.189-0.047l-0.018-0.005c-0.061-0.015-0.124-0.031-0.184-0.047l-0.025-0.006l-0.116-0.03l-0.007-0.002
		l-0.063-0.016l-0.014-0.004l-0.114-0.03l-0.016-0.004l-0.063-0.016l-0.004-0.001l-0.122-0.032l-0.016-0.004l-0.192-0.051
		l-0.008-0.002l-0.196-0.053l-0.006-0.002l-0.123-0.033l-0.01-0.003c-0.066-0.018-0.132-0.036-0.198-0.054l-0.003-0.001
		c-0.066-0.018-0.133-0.037-0.199-0.055l-0.004-0.001c-0.178-0.05-0.357-0.1-0.535-0.151l-0.001,0l-0.201-0.058l-0.001,0
		c-0.066-0.019-0.133-0.039-0.199-0.058l-0.003-0.001c-4.911-1.442-9.651-3.412-14.137-5.875c-5.168-2.828-11.65-0.932-14.478,4.236
		c-2.826,5.164-0.934,11.642,4.227,14.473c34.27,18.716,76.574,14.085,105.984-11.602c4.431-3.883,4.875-10.622,0.992-15.052
		C196.015,386.299,193.089,384.973,190.015,384.975L190.015,384.975z"/>
</g>
<path style="fill:#4E6B86;" d="M333.575,0.003c-36.016-0.047-70.565,14.264-95.999,39.765c0,0-0.471,0.472-1.297,1.297
	c-0.826,0.825-2.005,2.005-3.42,3.42c-1.415,1.415-3.066,3.066-4.835,4.835s-3.656,3.655-5.542,5.542
	c-1.887,1.887-3.773,3.773-5.542,5.542c-1.768,1.769-3.419,3.42-4.835,4.835c-1.415,1.415-2.594,2.594-3.419,3.42
	c-0.826,0.825-1.298,1.297-1.298,1.297c-8.321,8.342-8.303,21.849,0.038,30.17c8.327,8.306,21.805,8.306,30.132,0l30.188-30.188
	c17.42-17.516,41.125-27.335,65.829-27.268c11.83-0.017,23.554,2.226,34.542,6.608c10.942,4.37,23.354-0.957,27.725-11.898
	c4.37-10.942-0.957-23.354-11.898-27.725c-0.01-0.004-0.02-0.008-0.029-0.012c-7.019-2.797-14.259-5.001-21.646-6.59
	c-1.574-0.339-3.152-0.649-4.734-0.931l-0.005-0.001l-0.096-0.017l-0.003,0l-0.096-0.017l-0.003-0.001l-0.098-0.017l-0.098-0.017
	l-0.002,0l-0.193-0.034l-0.008-0.001l-0.089-0.016l-0.011-0.002l-0.087-0.015l-0.012-0.002l-0.088-0.015l-0.011-0.002l-0.089-0.015
	l-0.01-0.002l-0.091-0.015l-0.007-0.001l-0.092-0.016l-0.008-0.001l-0.094-0.016l-0.002,0l-0.093-0.016l-0.011-0.002l-0.089-0.015
	l-0.012-0.002l-0.083-0.014l-0.02-0.003l-0.084-0.014l-0.011-0.002l-0.087-0.014l-0.012-0.002l-0.091-0.015l-0.004-0.001
	l-0.095-0.015l-0.005-0.001l-0.095-0.016l-0.001,0l-0.096-0.016l-0.007-0.001l-0.094-0.015l-0.001,0l-0.096-0.015l-0.006-0.001
	l-0.194-0.031l-0.001,0c-0.988-0.157-1.978-0.303-2.969-0.437l-0.014-0.002l-0.096-0.013l-0.001,0l-0.088-0.012L351.77,1.22
	l-0.083-0.011l-0.016-0.002l-0.083-0.011l-0.016-0.002l-0.089-0.012l-0.008-0.001l-0.087-0.011l-0.016-0.002l-0.082-0.011
	l-0.018-0.002l-0.075-0.01l-0.029-0.004l-0.076-0.01l-0.021-0.003l-0.078-0.01l-0.023-0.003l-0.079-0.01l-0.018-0.002l-0.079-0.01
	l-0.024-0.003l-0.077-0.01l-0.021-0.003l-0.076-0.01l-0.027-0.003l-0.07-0.009l-0.029-0.004l-0.071-0.009l-0.03-0.004l-0.071-0.009
	l-0.027-0.003l-0.074-0.009l-0.025-0.003l-0.076-0.009l-0.023-0.003l-0.074-0.009l-0.029-0.004l-0.072-0.009l-0.024-0.003
	l-0.076-0.009l-0.026-0.003l-0.072-0.009l-0.031-0.004l-0.067-0.008l-0.036-0.004l-0.066-0.008l-0.029-0.003l-0.072-0.008
	l-0.029-0.003l-0.07-0.008l-0.03-0.003l-0.071-0.008l-0.029-0.003l-0.071-0.008l-0.026-0.003l-0.076-0.009l-0.023-0.003
	l-0.076-0.009l-0.024-0.003l-0.074-0.008l-0.029-0.003l-0.073-0.008L348.67,0.84l-0.078-0.009l-0.023-0.003l-0.077-0.008
	l-0.021-0.002l-0.08-0.009l-0.018-0.002l-0.083-0.009l-0.014-0.001l-0.087-0.009l-0.014-0.002l-0.084-0.009l-0.021-0.002
	l-0.078-0.008l-0.025-0.003l-0.075-0.008l-0.024-0.003l-0.078-0.008l-0.014-0.001l-0.087-0.009l-0.007-0.001l-0.093-0.01l-0.005,0
	c-0.529-0.055-1.059-0.106-1.589-0.155l-0.005,0c-0.096-0.009-0.191-0.017-0.287-0.026l-0.014-0.001l-0.076-0.007l-0.027-0.002
	l-0.072-0.006l-0.029-0.003l-0.071-0.006l-0.029-0.002l-0.072-0.006l-0.03-0.003L345.217,0.5l-0.034-0.003l-0.068-0.006
	l-0.033-0.003l-0.066-0.006l-0.034-0.003l-0.066-0.006l-0.036-0.003l-0.059-0.005l-0.042-0.003l-0.061-0.005l-0.038-0.003
	l-0.064-0.005l-0.035-0.003l-0.069-0.006l-0.031-0.002l-0.067-0.005l-0.035-0.003l-0.063-0.005l-0.039-0.003l-0.061-0.005
	l-0.038-0.003l-0.064-0.005l-0.038-0.003l-0.059-0.005l-0.042-0.003l-0.061-0.005l-0.04-0.003l-0.06-0.005l-0.04-0.003l-0.063-0.005
	l-0.039-0.003l-0.059-0.004l-0.042-0.003l-0.062-0.005l-0.036-0.003l-0.065-0.005l-0.035-0.002l-0.065-0.005l-0.04-0.003
	l-0.056-0.004l-0.047-0.003l-0.057-0.004l-0.042-0.003l-0.058-0.004l-0.042-0.003l-0.06-0.004l-0.042-0.003l-0.057-0.004
	l-0.043-0.003l-0.061-0.004l-0.039-0.003l-0.061-0.004l-0.039-0.003l-0.063-0.004l-0.041-0.003l-0.057-0.004l-0.045-0.003
	l-0.057-0.004l-0.044-0.003l-0.055-0.003l-0.046-0.003l-0.058-0.004l-0.04-0.002l-0.059-0.004l-0.044-0.003l-0.057-0.004
	l-0.043-0.003l-0.057-0.003l-0.043-0.003l-0.06-0.004l-0.044-0.003l-0.053-0.003l-0.053-0.003l-0.049-0.003L341.45,0.23
	l-0.051-0.003l-0.043-0.002l-0.061-0.003l-0.038-0.002l-0.06-0.003l-0.044-0.002l-0.059-0.003l-0.036-0.002l-0.064-0.004
	l-0.036-0.002l-0.066-0.004l-0.034-0.002l-0.063-0.003l-0.046-0.002l-0.057-0.003l-0.03-0.002l-0.07-0.004l-0.031-0.002
	l-0.171-0.009l-0.027-0.001c-0.113-0.006-0.223-0.011-0.336-0.016l-0.04-0.002l-0.071-0.003l-0.027-0.001l-0.054-0.002l-0.049-0.002
	l-0.061-0.003l-0.037-0.002l-0.063-0.003l-0.04-0.002l-0.059-0.003l-0.041-0.002l-0.053-0.002l-0.051-0.002l-0.046-0.002
	l-0.053-0.002l-0.048-0.002l-0.057-0.002l-0.036-0.001l-0.063-0.003l-0.044-0.002l-0.058-0.002l-0.048-0.002l-0.051-0.002
	l-0.051-0.002l-0.052-0.002L338.727,0.1l-0.053-0.002l-0.047-0.002l-0.057-0.002l-0.044-0.002l-0.053-0.002l-0.049-0.002
	l-0.055-0.002l-0.045-0.002l-0.053-0.002l-0.05-0.002l-0.052-0.002l-0.047-0.002l-0.053-0.002l-0.048-0.002l-0.055-0.002
	l-0.044-0.001l-0.055-0.002l-0.048-0.001l-0.053-0.002l-0.051-0.002l-0.048-0.001l-0.051-0.002l-0.053-0.002l-0.047-0.001
	l-0.053-0.002l-0.047-0.001l-0.057-0.002l-0.044-0.001l-0.054-0.001l-0.049-0.001l-0.053-0.001l-0.048-0.001l-0.053-0.001
	l-0.048-0.001l-0.057-0.001l-0.042-0.001l-0.057-0.001l-0.046-0.001l-0.057-0.001l-0.042-0.001l-0.056-0.001l-0.047-0.001
	l-0.055-0.001l-0.047-0.001l-0.052-0.001l-0.049-0.001l-0.053-0.001l-0.048-0.001l-0.052-0.001l-0.048-0.001l-0.057-0.001
	l-0.044-0.001l-0.053-0.001l-0.05-0.001l-0.053-0.001l-0.047-0.001l-0.051-0.001l-0.052-0.001l-0.049-0.001l-0.051-0.001
	l-0.047-0.001l-0.055-0.001l-0.051-0.001l-0.048-0.001l-0.053-0.001l-0.049-0.001l-0.052-0.001l-0.049-0.001l-0.05-0.001
	l-0.049-0.001l-0.058-0.001l-0.042,0l-0.059-0.001l-0.042,0l-0.061-0.001l-0.04,0l-0.059-0.001l-0.044,0l-0.057,0l-0.044,0l-0.051,0
	l-0.051,0l-0.051,0l-0.049,0l-0.053,0l-0.048,0l-0.057,0l-0.043,0l-0.053,0l-0.049,0l-0.057,0l-0.043,0l-0.059,0l-0.042,0l-0.054,0
	l-0.048,0l-0.064,0l-0.036,0l-0.098,0h-0.003L333.575,0.003L333.575,0.003z"/>
<path style="fill:#738AA0;" d="M445.164,139.763c-9.965,0.013-18.594,6.92-20.79,16.639c-3.878,17.125-12.536,32.797-24.969,45.196
	l-48.471,48.471c-25.557,25.52-63.552,33.989-97.529,21.739c-11.083-3.998-23.309,1.745-27.307,12.828
	c-3.989,11.058,1.719,23.259,12.764,27.284c12.322,4.449,25.222,7.094,38.3,7.852l0.011,0.001l0.089,0.005l0.012,0.001l0.089,0.005
	l0.011,0.001c0.201,0.011,0.402,0.022,0.603,0.033l0.009,0l0.09,0.005l0.014,0.001l0.084,0.004l0.02,0.001l0.081,0.004l0.017,0.001
	l0.085,0.004l0.014,0.001l0.199,0.01h0.001c0.102,0.005,0.202,0.01,0.305,0.014h0.001l0.094,0.004l0.02,0.001l0.081,0.004
	l0.018,0.001l0.082,0.004l0.017,0.001l0.089,0.004l0.01,0l0.089,0.004l0.013,0.001c0.102,0.004,0.199,0.008,0.301,0.012l0.007,0
	l0.089,0.003l0.027,0.001l0.072,0.003l0.025,0.001l0.074,0.003l0.028,0.001l0.072,0.003l0.025,0.001l0.071,0.003l0.031,0.001
	l0.083,0.003l0.011,0l0.091,0.003l0.01,0l0.2,0.007l0.01,0l0.091,0.003l0.013,0l0.081,0.003l0.029,0.001l0.069,0.002l0.031,0.001
	l0.065,0.002l0.034,0.001l0.067,0.002l0.031,0.001l0.068,0.002l0.03,0.001l0.088,0.002l0.008,0l0.199,0.005l0.023,0.001l0.074,0.002
	l0.035,0.001l0.063,0.002l0.033,0.001l0.064,0.002l0.038,0.001l0.061,0.001l0.034,0.001l0.064,0.001l0.035,0.001l0.076,0.002
	l0.018,0l0.083,0.002l0.018,0l0.196,0.004l0.023,0l0.077,0.001l0.026,0l0.066,0.001l0.042,0.001l0.058,0.001l0.038,0.001
	l0.059,0.001l0.039,0.001l0.06,0.001l0.039,0.001l0.055,0.001l0.043,0.001l0.068,0.001l0.027,0l0.195,0.003l0.034,0l0.062,0.001
	l0.042,0l0.057,0.001l0.035,0l0.066,0.001l0.033,0l0.064,0.001l0.035,0l0.061,0.001l0.039,0l0.064,0.001l0.031,0l0.066,0.001
	l0.034,0l0.189,0.001l0.042,0l0.059,0l0.038,0l0.055,0l0.048,0l0.052,0l0.043,0l0.054,0l0.043,0l0.058,0l0.04,0l0.057,0l0.041,0
	l0.066,0h0.03h0.098c36.016,0.047,70.565-14.264,96-39.764l48.471-48.471c0.032-0.032,0.066-0.066,0.098-0.098l0.028-0.028
	l0.078-0.078l0.023-0.023l0.096-0.097l0.023-0.023l0.077-0.077l0.028-0.028l0.096-0.097l0.014-0.015l0.085-0.086l0.026-0.027
	c0.03-0.03,0.059-0.059,0.089-0.089l0.01-0.01l0.094-0.096l0.031-0.031l0.074-0.075l0.025-0.026l0.094-0.096l0.026-0.027
	l0.074-0.076l0.027-0.028c0.031-0.032,0.063-0.065,0.095-0.097l0.014-0.015c0.027-0.028,0.056-0.057,0.083-0.085l0.029-0.03
	l0.077-0.079l0.021-0.022c0.031-0.031,0.061-0.063,0.091-0.094l0.033-0.034c0.021-0.022,0.042-0.044,0.064-0.066l0.036-0.037
	l0.089-0.092l0.025-0.026l0.07-0.073l0.034-0.035c0.025-0.026,0.053-0.055,0.077-0.08l0.026-0.027
	c0.028-0.029,0.055-0.057,0.083-0.086l0.033-0.035c0.023-0.023,0.046-0.048,0.068-0.071l0.027-0.028
	c0.031-0.032,0.06-0.063,0.09-0.094l0.029-0.031l0.07-0.073l0.029-0.031c0.029-0.03,0.061-0.064,0.09-0.094l0.027-0.028l0.067-0.071
	l0.034-0.036c0.024-0.026,0.048-0.051,0.072-0.077l0.023-0.024c0.029-0.031,0.06-0.064,0.089-0.094l0.034-0.035l0.063-0.068
	l0.032-0.033l0.087-0.093l0.033-0.035l0.061-0.065l0.038-0.04l0.074-0.079l0.035-0.037c0.021-0.024,0.044-0.048,0.066-0.072
	l0.04-0.043c0.02-0.021,0.04-0.043,0.06-0.064l0.032-0.035c0.03-0.032,0.057-0.061,0.087-0.093l0.033-0.035l0.061-0.067l0.034-0.036
	c0.029-0.031,0.057-0.061,0.085-0.092l0.033-0.035l0.061-0.067l0.035-0.038c0.023-0.025,0.046-0.05,0.069-0.075l0.027-0.029
	c0.029-0.031,0.054-0.059,0.083-0.09l0.033-0.037l0.063-0.068l0.032-0.035c0.029-0.031,0.057-0.062,0.085-0.093l0.032-0.035
	l0.061-0.067l0.033-0.037c0.029-0.031,0.057-0.062,0.085-0.093l0.025-0.027l0.068-0.076l0.035-0.038l0.068-0.076l0.021-0.024
	l0.087-0.096l0.034-0.038c0.02-0.021,0.04-0.044,0.059-0.065l0.035-0.039c0.027-0.03,0.055-0.061,0.082-0.091l0.035-0.039
	l0.055-0.062l0.038-0.042c0.022-0.025,0.042-0.048,0.065-0.073l0.039-0.044c0.022-0.025,0.047-0.052,0.069-0.077l0.036-0.04
	l0.055-0.062l0.035-0.04l0.082-0.092l0.034-0.038c0.019-0.022,0.039-0.044,0.058-0.065l0.035-0.04
	c0.028-0.031,0.055-0.061,0.082-0.093l0.031-0.034c0.02-0.023,0.038-0.043,0.058-0.066l0.037-0.042l0.063-0.071l0.033-0.038
	l0.076-0.086l0.036-0.042c0.02-0.022,0.038-0.042,0.057-0.064l0.033-0.037l0.081-0.093l0.036-0.042
	c0.018-0.021,0.036-0.041,0.053-0.061l0.038-0.043c0.023-0.027,0.045-0.052,0.068-0.079l0.039-0.045l0.061-0.069
	c0.012-0.014,0.025-0.03,0.038-0.043c0.018-0.021,0.035-0.041,0.053-0.062l0.038-0.044c0.027-0.03,0.051-0.059,0.077-0.089
	c0.012-0.014,0.023-0.028,0.036-0.041c0.018-0.021,0.035-0.041,0.053-0.062l0.035-0.041c0.027-0.031,0.054-0.062,0.081-0.094
	l0.029-0.033c0.02-0.023,0.041-0.048,0.061-0.071l0.033-0.039l0.07-0.082l0.021-0.024l0.079-0.092l0.033-0.038l0.061-0.071
	l0.029-0.033c0.027-0.032,0.054-0.064,0.081-0.095l0.033-0.039c0.019-0.022,0.037-0.043,0.055-0.065l0.034-0.039l0.079-0.094
	l0.029-0.034l0.06-0.071l0.036-0.043c0.018-0.022,0.037-0.044,0.056-0.066l0.031-0.037c0.026-0.03,0.052-0.061,0.077-0.092
	l0.037-0.044l0.052-0.062l0.035-0.042c0.026-0.031,0.053-0.063,0.079-0.094l0.033-0.039c0.018-0.021,0.034-0.04,0.051-0.061
	c0.015-0.017,0.025-0.03,0.04-0.047l0.059-0.07l0.044-0.053l0.06-0.072l0.036-0.043c0.017-0.021,0.036-0.044,0.053-0.065
	l0.032-0.038l0.077-0.094l0.034-0.041l0.055-0.067l0.033-0.04c0.026-0.032,0.052-0.063,0.079-0.095l0.029-0.035l0.057-0.069
	l0.034-0.041l0.059-0.073l0.036-0.044l0.07-0.085l0.031-0.037c0.02-0.025,0.04-0.049,0.06-0.074l0.025-0.031l0.081-0.099
	l0.029-0.036c0.02-0.023,0.038-0.046,0.057-0.07l0.033-0.041l0.079-0.097l0.02-0.025l0.063-0.077l0.034-0.042l0.058-0.071
	l0.027-0.033l0.077-0.096l0.034-0.043l0.052-0.064l0.032-0.04c0.025-0.031,0.052-0.065,0.077-0.096l0.031-0.038l0.055-0.069
	c0.012-0.014,0.022-0.027,0.033-0.041l0.063-0.079l0.031-0.039l0.067-0.085l0.029-0.037l0.061-0.077l0.025-0.031l0.079-0.1
	l0.028-0.035c0.018-0.022,0.037-0.047,0.055-0.069l0.032-0.041c0.026-0.032,0.051-0.064,0.076-0.097l0.027-0.034l0.056-0.071
	l0.034-0.043c0.021-0.026,0.042-0.053,0.062-0.079l0.018-0.023l0.077-0.099c0.011-0.014,0.023-0.029,0.033-0.043l0.053-0.067
	l0.031-0.04l0.076-0.097l0.029-0.038c0.018-0.024,0.034-0.045,0.053-0.068l0.032-0.041l0.064-0.082l0.035-0.046l0.06-0.077
	l0.031-0.04l0.055-0.072l0.027-0.034c0.025-0.033,0.051-0.066,0.076-0.099l0.029-0.038c0.018-0.023,0.037-0.048,0.054-0.071
	l0.031-0.04c0.025-0.033,0.051-0.066,0.076-0.099l0.024-0.031c0.019-0.025,0.038-0.05,0.057-0.075l0.03-0.04l0.062-0.081
	l0.029-0.038l0.066-0.086l0.033-0.043c0.018-0.023,0.035-0.046,0.052-0.068l0.029-0.037l0.075-0.099l0.029-0.038
	c0.018-0.024,0.036-0.047,0.053-0.071l0.031-0.04c0.026-0.034,0.049-0.065,0.075-0.099l0.023-0.03
	c0.02-0.026,0.038-0.05,0.057-0.076l0.031-0.042c0.018-0.023,0.036-0.049,0.054-0.071l0.029-0.039
	c0.023-0.032,0.047-0.063,0.071-0.094l0.034-0.045l0.044-0.059l0.036-0.048l0.071-0.095l0.028-0.038l0.053-0.071l0.031-0.042
	l0.065-0.088l0.023-0.031l0.064-0.087l0.03-0.04c0.019-0.025,0.039-0.053,0.057-0.078l0.022-0.03l0.076-0.102l0.027-0.036
	l0.056-0.076l0.025-0.033c0.025-0.034,0.05-0.069,0.076-0.103l0.023-0.031l0.057-0.078l0.028-0.038
	c0.021-0.028,0.042-0.058,0.063-0.086l0.016-0.022c0.025-0.034,0.05-0.069,0.075-0.103l0.027-0.038l0.053-0.073l0.028-0.039
	l0.074-0.101l0.025-0.035l0.053-0.072l0.031-0.042c0.021-0.029,0.044-0.06,0.064-0.09c0.01-0.014,0.02-0.026,0.029-0.041
	l0.055-0.076l0.033-0.046l0.051-0.071l0.025-0.035c0.023-0.033,0.048-0.067,0.072-0.1l0.029-0.041
	c0.018-0.024,0.035-0.049,0.052-0.073c0.008-0.011,0.02-0.027,0.027-0.038c0.024-0.033,0.048-0.067,0.072-0.101l0.025-0.035
	c0.018-0.024,0.036-0.05,0.053-0.075c0.008-0.011,0.02-0.028,0.027-0.039c0.021-0.029,0.041-0.057,0.062-0.087l0.025-0.036
	l0.064-0.09l0.026-0.037c0.018-0.026,0.037-0.052,0.055-0.077l0.024-0.033c0.024-0.035,0.048-0.068,0.072-0.103l0.025-0.036
	c0.018-0.026,0.035-0.049,0.053-0.075l0.028-0.04c0.024-0.035,0.048-0.068,0.072-0.103l0.018-0.025
	c0.02-0.028,0.038-0.054,0.058-0.083l0.028-0.041l0.057-0.081l0.02-0.028l0.072-0.104l0.026-0.037l0.051-0.074l0.027-0.038
	c0.023-0.033,0.046-0.066,0.069-0.1l0.028-0.041l0.05-0.072l0.028-0.04l0.064-0.093l0.023-0.033l0.059-0.086l0.026-0.038
	l0.055-0.079l0.023-0.034c0.023-0.035,0.047-0.068,0.071-0.103l0.023-0.034l0.054-0.079l0.023-0.034l0.072-0.105l0.021-0.032
	l0.054-0.079l0.027-0.04c0.021-0.031,0.043-0.064,0.064-0.095l0.008-0.012c0.024-0.036,0.048-0.07,0.072-0.107l0.025-0.037
	c0.019-0.027,0.036-0.054,0.055-0.081l0.021-0.031l0.071-0.105l0.023-0.034l0.053-0.079l0.023-0.035
	c0.025-0.036,0.048-0.07,0.072-0.106l0.016-0.024c0.02-0.03,0.04-0.06,0.06-0.09l0.024-0.035l0.055-0.083l0.02-0.029l0.07-0.105
	l0.023-0.035l0.055-0.084l0.021-0.031l0.072-0.109l0.015-0.023c0.02-0.03,0.04-0.06,0.06-0.09l0.02-0.031
	c0.025-0.038,0.049-0.074,0.074-0.112l0.001-0.002l0.072-0.109l0.021-0.033c0.02-0.03,0.04-0.06,0.059-0.09l0.015-0.022l0.071-0.109
	l0.022-0.033c0.018-0.027,0.036-0.056,0.055-0.084l0.021-0.032c0.023-0.037,0.048-0.073,0.072-0.11l0.011-0.018
	c0.021-0.031,0.042-0.063,0.062-0.095l0.021-0.033l0.059-0.091l0.015-0.023c0.023-0.037,0.046-0.071,0.07-0.108l0.022-0.034
	l0.053-0.082l0.021-0.033l0.068-0.106l0.021-0.033c0.016-0.026,0.034-0.055,0.051-0.081l0.025-0.039
	c0.023-0.035,0.046-0.071,0.068-0.106l0.012-0.019c0.02-0.03,0.04-0.062,0.059-0.092l0.025-0.038l0.055-0.086l0.018-0.027
	c0.022-0.036,0.045-0.07,0.067-0.106l0.025-0.039c0.017-0.026,0.034-0.053,0.05-0.079l0.021-0.033
	c0.023-0.036,0.046-0.073,0.069-0.109l0.018-0.028l0.055-0.087l0.021-0.034l0.063-0.099l0.011-0.017
	c0.022-0.036,0.044-0.07,0.066-0.106l0.021-0.034l0.055-0.088l0.017-0.027c0.023-0.037,0.046-0.074,0.07-0.111l0.016-0.026
	c0.018-0.029,0.037-0.059,0.055-0.088l0.021-0.033c0.023-0.037,0.046-0.074,0.069-0.111l0.011-0.018l0.059-0.095l0.023-0.036
	l0.057-0.092l0.013-0.021c0.022-0.036,0.045-0.072,0.066-0.108c0.01-0.015,0.014-0.023,0.023-0.038
	c0.018-0.028,0.035-0.055,0.051-0.083l0.02-0.032c0.022-0.036,0.045-0.073,0.066-0.108l0.02-0.032
	c0.018-0.028,0.035-0.056,0.051-0.084l0.021-0.035c0.021-0.035,0.042-0.068,0.063-0.103l0.016-0.026l0.058-0.095l0.022-0.037
	c0.018-0.029,0.036-0.059,0.054-0.088l0.015-0.025c0.023-0.037,0.044-0.072,0.066-0.11l0.021-0.036
	c0.016-0.027,0.033-0.054,0.049-0.08l0.023-0.038l0.066-0.109l0.012-0.021c0.019-0.031,0.038-0.062,0.056-0.093l0.021-0.036
	l0.059-0.098l0.01-0.016c0.021-0.036,0.045-0.074,0.066-0.11l0.022-0.037c0.016-0.027,0.033-0.056,0.049-0.083l0.019-0.032
	l0.065-0.109l0.02-0.034c0.016-0.028,0.033-0.055,0.049-0.083l0.021-0.037l0.064-0.108l0.015-0.026l0.053-0.09l0.02-0.034
	c0.02-0.032,0.037-0.063,0.056-0.095l0.013-0.021l0.065-0.111l0.021-0.035l0.048-0.082l0.021-0.035
	c0.021-0.036,0.043-0.074,0.064-0.11l0.015-0.026c0.018-0.029,0.036-0.062,0.053-0.091l0.02-0.033
	c0.044-0.075,0.088-0.15,0.132-0.225c0.007-0.011,0.015-0.027,0.022-0.038l0.05-0.087l0.017-0.029l0.064-0.111l0.018-0.032
	c0.017-0.03,0.033-0.058,0.051-0.087l0.018-0.032l0.064-0.111l0.016-0.027l0.051-0.09l0.021-0.037l0.052-0.091l0.014-0.024
	l0.063-0.109l0.021-0.038l0.046-0.079l0.023-0.04c0.021-0.036,0.04-0.071,0.061-0.107l0.019-0.033l0.048-0.084
	c0.006-0.011,0.014-0.024,0.02-0.036c0.02-0.036,0.042-0.075,0.063-0.112l0.01-0.019l0.054-0.095l0.022-0.039l0.051-0.092
	l0.012-0.021c0.021-0.038,0.042-0.075,0.063-0.113l0.019-0.034c0.016-0.03,0.033-0.059,0.049-0.089l0.017-0.03
	c0.021-0.038,0.042-0.076,0.064-0.114l0.012-0.023l0.053-0.094l0.018-0.033l0.057-0.103l0.01-0.018l0.061-0.11l0.02-0.035
	l0.047-0.085l0.019-0.033c0.02-0.037,0.04-0.073,0.061-0.11l0.018-0.034l0.046-0.085l0.021-0.039l0.06-0.109l0.015-0.027
	l0.047-0.086l0.024-0.044c0.016-0.03,0.031-0.057,0.047-0.087l0.016-0.028c0.021-0.038,0.039-0.072,0.06-0.11l0.02-0.037
	l0.048-0.087l0.016-0.029c0.02-0.038,0.04-0.074,0.061-0.112l0.018-0.034l0.046-0.085l0.02-0.037c0.02-0.037,0.04-0.074,0.06-0.111
	l0.008-0.015l0.055-0.102l0.021-0.039c0.015-0.029,0.031-0.057,0.046-0.086l0.018-0.033l0.06-0.112l0.016-0.03
	c0.016-0.03,0.031-0.059,0.048-0.089l0.018-0.034c0.021-0.038,0.04-0.075,0.061-0.114l0.012-0.022l0.051-0.095l0.019-0.037
	l0.055-0.104l0.006-0.011l0.061-0.116l0.017-0.032c0.016-0.03,0.033-0.062,0.049-0.092l0.016-0.03
	c0.019-0.037,0.038-0.074,0.058-0.111l0.02-0.037l0.043-0.083l0.02-0.037c0.019-0.037,0.039-0.076,0.059-0.113l0.012-0.022
	l0.049-0.094l0.021-0.04l0.046-0.09l0.014-0.026c0.02-0.038,0.038-0.074,0.059-0.112l0.018-0.036l0.044-0.084l0.02-0.038
	l0.057-0.111l0.017-0.032c0.014-0.027,0.028-0.055,0.042-0.082l0.023-0.045l0.05-0.099l0.012-0.023l0.054-0.106l0.018-0.037
	l0.045-0.087l0.016-0.032l0.055-0.11l0.021-0.041l0.04-0.08l0.02-0.04l0.056-0.111l0.015-0.029l0.044-0.088l0.021-0.042
	c0.014-0.028,0.029-0.057,0.043-0.085c0.007-0.016,0.013-0.026,0.021-0.042c0.017-0.034,0.034-0.067,0.051-0.102l0.02-0.041
	l0.041-0.083l0.018-0.036c0.018-0.037,0.037-0.075,0.056-0.112l0.016-0.034l0.042-0.083c0.006-0.012,0.016-0.031,0.021-0.043
	c0.02-0.039,0.037-0.074,0.056-0.113l0.005-0.009l0.053-0.107l0.02-0.04l0.043-0.087l0.016-0.032
	c0.018-0.036,0.036-0.073,0.054-0.109l0.021-0.045l0.036-0.073l0.021-0.044c0.018-0.036,0.036-0.073,0.053-0.109l0.018-0.035
	l0.042-0.085l0.02-0.041l0.043-0.088l0.022-0.046c0.015-0.03,0.03-0.062,0.045-0.093l0.021-0.045l0.038-0.078l0.02-0.043
	c0.018-0.036,0.035-0.071,0.051-0.107l0.022-0.045c0.011-0.024,0.022-0.047,0.034-0.071l0.023-0.05l0.046-0.095l0.024-0.051
	c0.012-0.025,0.024-0.051,0.036-0.076l0.024-0.051c0.012-0.026,0.023-0.049,0.036-0.076l0.018-0.039
	c0.016-0.035,0.034-0.072,0.051-0.107l0.023-0.048l0.034-0.074l0.021-0.045l0.051-0.109l0.018-0.039l0.036-0.077l0.022-0.047
	l0.04-0.084l0.027-0.059l0.039-0.083l0.021-0.046l0.036-0.077l0.018-0.04l0.051-0.11l0.019-0.04l0.037-0.08
	c0.007-0.016,0.013-0.029,0.021-0.045c0.016-0.036,0.033-0.072,0.049-0.108l0.019-0.04c0.012-0.026,0.022-0.049,0.034-0.076
	l0.023-0.051c0.011-0.024,0.023-0.05,0.034-0.074c0.009-0.02,0.023-0.05,0.032-0.07c0.012-0.026,0.024-0.051,0.036-0.078
	l0.025-0.055c0.01-0.022,0.02-0.043,0.03-0.066l0.023-0.05c0.016-0.035,0.032-0.07,0.048-0.105l0.023-0.049
	c0.01-0.024,0.021-0.047,0.032-0.071l0.023-0.051c0.014-0.031,0.027-0.06,0.042-0.091l0.025-0.054
	c0.011-0.025,0.023-0.053,0.035-0.078l0.022-0.049l0.034-0.076l0.02-0.043l0.049-0.108l0.021-0.046
	c0.01-0.024,0.02-0.046,0.031-0.07c0.007-0.016,0.016-0.036,0.023-0.052l0.047-0.105l0.02-0.044l0.033-0.075l0.022-0.049
	l0.035-0.079l0.03-0.067l0.033-0.075l0.024-0.054l0.031-0.071l0.021-0.047c0.016-0.035,0.031-0.07,0.046-0.105l0.023-0.053
	l0.028-0.064l0.024-0.055l0.033-0.076l0.035-0.08l0.029-0.065l0.023-0.053l0.033-0.075l0.022-0.052
	c0.014-0.032,0.027-0.064,0.042-0.096l0.023-0.053l0.029-0.066l0.023-0.054l0.045-0.104l0.021-0.048l0.03-0.069l0.023-0.053
	c0.011-0.027,0.023-0.053,0.034-0.079l0.031-0.071c0.01-0.024,0.02-0.048,0.031-0.072l0.024-0.057l0.027-0.063l0.022-0.052
	l0.044-0.103c0.007-0.016,0.018-0.04,0.024-0.056l0.027-0.064c0.007-0.016,0.016-0.04,0.023-0.055l0.034-0.081l0.034-0.08
	l0.024-0.057l0.025-0.059c0.009-0.023,0.018-0.042,0.027-0.065c0.013-0.032,0.025-0.06,0.038-0.092
	c0.008-0.021,0.017-0.041,0.026-0.062c0.008-0.02,0.018-0.043,0.026-0.063c0.007-0.017,0.015-0.036,0.021-0.052
	c0.008-0.02,0.019-0.044,0.027-0.064c0.014-0.032,0.027-0.064,0.04-0.097c0.01-0.024,0.017-0.041,0.027-0.065
	c0.007-0.018,0.014-0.035,0.022-0.054c0.008-0.02,0.018-0.043,0.026-0.063c0.009-0.023,0.018-0.045,0.028-0.067l0.037-0.091
	l0.023-0.056l0.027-0.065l0.022-0.054l0.037-0.091l0.029-0.072l0.024-0.058c0.008-0.02,0.016-0.041,0.025-0.06l0.023-0.057
	l0.041-0.102l0.023-0.057l0.025-0.064l0.023-0.057l0.027-0.066l0.036-0.09c0.008-0.021,0.016-0.041,0.025-0.062
	c0.008-0.02,0.016-0.04,0.024-0.06c0.007-0.018,0.016-0.04,0.023-0.059l0.04-0.099l0.024-0.061l0.027-0.066l0.02-0.05l0.026-0.066
	l0.022-0.055c0.016-0.04,0.029-0.074,0.045-0.114l0.017-0.043l0.029-0.073l0.016-0.039c0.018-0.044,0.034-0.085,0.051-0.129
	l0.016-0.039l0.027-0.07l0.019-0.048l0.048-0.121l0.017-0.044l0.027-0.068c0.006-0.016,0.012-0.031,0.018-0.047l0.027-0.068
	l0.018-0.047l0.047-0.12l0.018-0.047l0.027-0.071l0.015-0.039c0.019-0.048,0.035-0.092,0.054-0.14l0.012-0.03l0.027-0.069
	l0.018-0.049c0.01-0.024,0.018-0.045,0.027-0.07l0.013-0.034l0.052-0.135l0.014-0.039c0.01-0.024,0.02-0.05,0.029-0.074l0.016-0.04
	c0.016-0.044,0.033-0.088,0.05-0.132l0.014-0.036l0.029-0.077l0.012-0.033c0.032-0.084,0.064-0.169,0.095-0.253l0.011-0.03
	c0.011-0.028,0.02-0.053,0.031-0.081l0.005-0.011l0.061-0.162l0.011-0.03c0.009-0.024,0.021-0.055,0.029-0.079l0.01-0.028
	l0.059-0.158l0.007-0.019l0.029-0.08l0.012-0.031c0.033-0.089,0.062-0.168,0.094-0.256l0.01-0.028l0.031-0.085l0.003-0.007
	l0.063-0.171l0.008-0.022l0.029-0.08l0.012-0.034c0.031-0.085,0.063-0.172,0.093-0.257l0.008-0.023l0.096-0.266l0.007-0.019
	l0.033-0.089l0.001-0.004c0.033-0.093,0.067-0.187,0.1-0.28l0.007-0.018c0.032-0.089,0.064-0.18,0.095-0.269l0.007-0.02
	c0.031-0.089,0.063-0.177,0.094-0.266l0.008-0.023l0.03-0.086l0.005-0.014c0.031-0.089,0.064-0.185,0.095-0.274l0.006-0.018
	c0.031-0.089,0.065-0.187,0.096-0.276l0.003-0.01c0.156-0.454,0.309-0.905,0.46-1.36v0c0.033-0.098,0.063-0.191,0.096-0.289
	l0.002-0.006c1.367-4.15,2.527-8.347,3.482-12.589c2.561-11.511-4.695-22.919-16.207-25.479
	C448.277,139.934,446.723,139.764,445.164,139.763L445.164,139.763z"/>
<path style="fill:#0F3860;" d="M216.821,219.789c-5.892,0.006-10.663,4.788-10.657,10.679c0.002,2.134,0.644,4.218,1.844,5.983
	c3.32,4.879,7.09,9.436,11.262,13.61c17.426,17.517,41.133,27.338,65.84,27.275c1.992,0,3.973-0.062,5.945-0.187
	c5.879-0.37,10.345-5.437,9.975-11.316c-0.354-5.615-5.008-9.99-10.635-9.996c-0.226,0-0.453,0.007-0.68,0.021
	c-0.304,0.019-0.609,0.036-0.913,0.052l-0.001,0l-0.107,0.005l-0.011,0.001l-0.101,0.005l-0.005,0l-0.1,0.005l-0.022,0.001
	l-0.094,0.004l-0.007,0l-0.095,0.004l-0.031,0.001l-0.092,0.004l-0.021,0.001l-0.076,0.003l-0.032,0.001l-0.088,0.003l-0.034,0.001
	l-0.064,0.002l-0.038,0.001l-0.085,0.003l-0.036,0.001l-0.064,0.002l-0.034,0.001l-0.086,0.003l-0.036,0.001l-0.067,0.002
	l-0.046,0.001l-0.071,0.002l-0.04,0.001l-0.073,0.002l-0.044,0.001l-0.064,0.002l-0.041,0.001l-0.083,0.002l-0.035,0.001
	l-0.066,0.002l-0.033,0.001l-0.089,0.002l-0.033,0.001l-0.069,0.001l-0.029,0.001l-0.089,0.002l-0.033,0.001l-0.079,0.001l-0.019,0
	l-0.094,0.001l-0.029,0l-0.096,0.001l-0.008,0l-0.089,0.001l-0.03,0l-0.094,0.001l-0.018,0L285.798,256l-0.023,0l-0.098,0.001
	l-0.016,0l-0.089,0.001l-0.018,0l-0.098,0.001l-0.02,0l-0.091,0h-0.012l-0.099,0h-0.023l-0.1,0
	c-19.044,0.048-37.318-7.52-50.75-21.021c-0.053-0.053-0.105-0.105-0.158-0.158l-0.007-0.007c-0.024-0.024-0.048-0.048-0.072-0.072
	l-0.007-0.007c-0.023-0.024-0.048-0.048-0.072-0.072l-0.007-0.008l-0.072-0.073l-0.005-0.005l-0.074-0.075l-0.006-0.006
	l-0.073-0.074l-0.004-0.004l-0.074-0.075l-0.006-0.006c-0.025-0.025-0.049-0.05-0.073-0.075l-0.003-0.003
	c-0.025-0.026-0.05-0.051-0.075-0.077l-0.003-0.003l-0.076-0.078l-0.001-0.001c-0.025-0.026-0.051-0.053-0.077-0.079l-0.002-0.002
	c-0.724-0.752-1.43-1.516-2.118-2.294l-0.002-0.002c-0.393-0.444-0.779-0.892-1.159-1.343l-0.01-0.012l-0.061-0.072l-0.013-0.015
	l-0.057-0.068l-0.018-0.021l-0.052-0.062l-0.021-0.025l-0.049-0.059l-0.022-0.027l-0.048-0.058l-0.021-0.026l-0.048-0.057
	l-0.025-0.03l-0.044-0.052l-0.028-0.034l-0.04-0.049l-0.031-0.038l-0.038-0.046l-0.031-0.037l-0.038-0.047l-0.032-0.039
	l-0.036-0.044l-0.033-0.04l-0.036-0.045l-0.033-0.04l-0.036-0.045l-0.032-0.039l-0.036-0.044l-0.035-0.043l-0.031-0.039
	l-0.036-0.046l-0.03-0.037l-0.039-0.049l-0.027-0.034c-0.014-0.017-0.027-0.033-0.04-0.05l-0.028-0.035l-0.04-0.051l-0.025-0.032
	l-0.042-0.052l-0.024-0.03l-0.044-0.056l-0.018-0.023l-0.048-0.06l-0.019-0.024c-0.077-0.099-0.156-0.198-0.233-0.297l-0.013-0.017
	l-0.048-0.062l-0.018-0.023l-0.043-0.056l-0.024-0.031l-0.042-0.054l-0.023-0.03c-0.014-0.018-0.027-0.035-0.041-0.053l-0.026-0.034
	l-0.04-0.053l-0.025-0.032l-0.041-0.054l-0.025-0.032l-0.04-0.053l-0.025-0.033l-0.038-0.051l-0.028-0.037l-0.037-0.048
	l-0.029-0.038l-0.036-0.048l-0.03-0.04l-0.035-0.046l-0.031-0.041l-0.033-0.044l-0.033-0.044l-0.031-0.042l-0.033-0.044
	l-0.032-0.042l-0.034-0.046l-0.03-0.04l-0.035-0.047l-0.03-0.04l-0.036-0.05l-0.027-0.036l-0.04-0.054l-0.023-0.032
	c-0.015-0.021-0.031-0.042-0.046-0.063l-0.017-0.023l-0.051-0.07l-0.013-0.017c-0.02-0.028-0.041-0.056-0.061-0.083l-0.002-0.003
	c-0.483-0.661-0.954-1.329-1.412-2.004C223.667,221.535,220.358,219.785,216.821,219.789L216.821,219.789z"/>
<g>
</g>
<g>
</g>
<g>
</g>
<g>
</g>
<g>
</g>
<g>
</g>
<g>
</g>
<g>
</g>
<g>
</g>
<g>
</g>
<g>
</g>
<g>
</g>
<g>
</g>
<g>
</g>
<g>
</g>
</svg>
